<svg width="53" height="52" viewBox="0 0 53 52" fill="none" xmlns="http://www.w3.org/2000/svg">
<g clip-path="url(#clip0_4_18)">
<path d="M45.5314 3.00522C43.9948 3.00522 42.5211 3.61066 41.4345 4.68835C40.348 5.76604 39.7376 7.2277 39.7376 8.75179V18.0937L25.2488 17.3759V7.31622C25.2488 5.41055 24.4856 3.58292 23.127 2.2354C21.7684 0.887887 19.9257 0.130859 18.0044 0.130859C16.0831 0.130859 14.2404 0.887887 12.8818 2.2354C11.5233 3.58292 10.76 5.41055 10.76 7.31622V44.6797C10.76 48.6523 14.0003 51.864 18.0033 51.864C22.0064 51.864 25.2488 48.6501 25.2488 44.6797V33.1822H39.7376V44.6797C39.7376 45.4343 39.8874 46.1816 40.1786 46.8788C40.4698 47.576 40.8965 48.2095 41.4345 48.7431C41.9725 49.2767 42.6112 49.7 43.3142 49.9888C44.0171 50.2776 44.7705 50.4262 45.5314 50.4262C46.2922 50.4262 47.0456 50.2776 47.7486 49.9888C48.4515 49.7 49.0902 49.2767 49.6282 48.7431C50.1662 48.2095 50.5929 47.576 50.8841 46.8788C51.1753 46.1816 51.3251 45.4343 51.3251 44.6797V8.75394C51.3251 7.22986 50.7147 5.7682 49.6282 4.69051C48.5416 3.61282 47.068 3.00738 45.5314 3.00738" fill="white"/>
<path d="M9.30739 7.31591C9.30739 6.15625 9.5421 5.05048 9.9637 4.03955C8.8839 4.67016 7.98835 5.5689 7.3653 6.64725C6.74224 7.72559 6.41317 8.94633 6.41051 10.1892V43.2438C6.41051 46.3305 8.38378 48.9408 11.1438 49.956C9.95494 48.4506 9.30847 46.5938 9.30739 44.6815V7.31591ZM5.61728 6.91283C4.53762 7.5436 3.6422 8.44239 3.01916 9.52069C2.39613 10.599 2.06697 11.8197 2.06409 13.0625V40.3684C2.06409 42.9938 3.49841 45.2657 5.61728 46.518C5.18342 45.4793 4.9604 44.366 4.96097 43.2417V10.1892C4.96097 9.02954 5.19568 7.92592 5.61728 6.91283Z" fill="white"/>
<path d="M38.286 8.75376C38.286 7.24922 38.7576 5.85676 39.5552 4.70142C38.3562 5.04698 37.3024 5.76841 36.5514 6.75771C35.8004 7.74701 35.3926 8.95095 35.3891 10.1893V16.4403L38.286 16.5847V8.75376ZM38.286 34.6198H35.387V43.2418C35.387 45.8521 37.1516 48.0313 39.553 48.7318C38.726 47.5397 38.2834 46.1266 38.2839 44.6795L38.286 34.6198Z" fill="white"/>
<path d="M31.0414 41.8043C31.0414 44.4146 32.8082 46.5938 35.2139 47.2943C34.3833 46.1036 33.9383 44.69 33.9383 43.242V34.62H31.0414V41.8043ZM33.9404 10.1895C33.9404 8.68716 34.412 7.29256 35.2096 6.13721C34.0103 6.48288 32.9562 7.20463 32.2051 8.19436C31.4541 9.1841 31.0466 10.3885 31.0436 11.6273V16.225L33.9404 16.3694V10.1895Z" fill="white"/>
</g>
<defs>
<clipPath id="clip0_4_18">
<rect width="52.157" height="51.732" fill="white" transform="translate(0.610718 0.131836)"/>
</clipPath>
</defs>
</svg>
